<svg width="181" height="181" viewBox="0 0 181 181" fill="none" xmlns="http://www.w3.org/2000/svg">
<circle cx="90.6484" cy="90.2485" r="90" fill="white"/>
<path d="M34.2636 115.643C31.7801 115.643 29.6626 114.768 27.9114 113.016C26.1602 111.265 25.2845 109.132 25.2845 106.616C25.2845 104.133 26.1602 102.015 27.9114 100.264C29.6626 98.513 31.7801 97.6374 34.2636 97.6374C36.7472 97.6374 38.8646 98.513 40.6159 100.264C42.3671 102.015 43.2427 104.133 43.2427 106.616C43.2427 109.132 42.3671 111.265 40.6159 113.016C38.8646 114.768 36.7472 115.643 34.2636 115.643ZM64.8097 87.321V114.736H48.3799V64.3001H64.6187V72.4673C66.3062 69.6016 68.4555 67.3409 71.0664 65.6852C73.6773 64.0295 76.8773 63.2016 80.6664 63.2016C86.143 63.2016 90.3937 64.9529 93.4186 68.4554C96.4753 71.9578 98.0036 76.8135 98.0036 83.0225V114.736H81.5738V86.4613C81.5738 83.4683 80.8574 81.1916 79.4246 79.6315C77.9918 78.0394 75.9699 77.2434 73.3589 77.2434C70.7798 77.2434 68.7102 78.0713 67.15 79.727C65.5898 81.3509 64.8097 83.8822 64.8097 87.321ZM104.287 134.7V64.3001H120.526V70.8912H120.765C123.79 65.7648 128.629 63.2016 135.284 63.2016C139.551 63.2016 143.308 64.3161 146.556 66.5449C149.803 68.7738 152.335 71.8623 154.15 75.8106C155.996 79.7588 156.92 84.2961 156.92 89.4225C156.92 94.7399 156.012 99.3886 154.197 103.369C152.414 107.317 149.883 110.39 146.603 112.587C143.356 114.752 139.535 115.834 135.141 115.834C128.327 115.834 123.583 112.969 120.908 107.237H120.717V134.7H104.287ZM130.508 102.7C133.533 102.7 135.921 101.522 137.672 99.1657C139.423 96.8095 140.299 93.5618 140.299 89.4225C140.299 85.315 139.423 82.0991 137.672 79.7747C135.921 77.4504 133.533 76.2882 130.508 76.2882C127.419 76.2882 124.904 77.4822 122.962 79.8703C121.019 82.2583 120.048 85.4424 120.048 89.4225C120.048 93.4662 121.019 96.6981 122.962 99.118C124.904 101.506 127.419 102.7 130.508 102.7Z" fill="url(#paint0_linear_305_590)"/>
<defs>
<linearGradient id="paint0_linear_305_590" x1="95.892" y1="53.5375" x2="95.892" y2="130.098" gradientUnits="userSpaceOnUse">
<stop/>
<stop offset="0.52" stop-color="#38393F"/>
<stop offset="1"/>
<stop offset="1" stop-color="#090909"/>
</linearGradient>
</defs>
</svg>
